<svg width="24" height="24" viewBox="0 0 24 24" fill="none" xmlns="http://www.w3.org/2000/svg">
<path d="M18.0548 3.99824H17.633C17.6494 3.76026 17.6617 3.51817 17.6699 3.27608C17.674 3.15709 17.674 3.0381 17.6781 2.91911H18.0057C18.2596 2.91911 18.4643 2.71395 18.4643 2.45955C18.4643 2.20516 18.2596 2 18.0057 2H8.12064H5.99131C5.83161 2 5.69238 2.08206 5.61048 2.20106C5.56134 2.27491 5.53268 2.36108 5.53268 2.45545C5.53268 2.70985 5.73742 2.91501 5.99131 2.91501H6.3189C6.3189 2.94373 6.3189 2.97245 6.3189 3.00117C6.3189 3.02579 6.3189 3.05041 6.3189 3.07913C6.3189 3.14478 6.32299 3.20633 6.32299 3.27198C6.32299 3.28839 6.32299 3.30481 6.32299 3.32122C6.32709 3.38277 6.32709 3.44842 6.33118 3.50996C6.33528 3.5592 6.33528 3.60844 6.33937 3.65768C6.34347 3.77257 6.35166 3.88335 6.35984 3.99824H5.93807C4.73418 3.99824 3.82102 5.08558 4.02986 6.2755L4.54172 9.21336C4.70552 10.1448 5.51221 10.8218 6.45403 10.8218H8.45233C9.19759 11.9132 10.0944 12.6723 11.0771 12.9637V16.197H10.2254H9.82411H9.45967C9.23854 16.197 9.05837 16.3775 9.05837 16.5991V18.4865H8.72259H7.90771C7.80534 18.4865 7.72344 18.5686 7.72344 18.6712V22.8154C7.72344 22.9179 7.80534 23 7.90771 23H8.91095H16.0934C16.1957 23 16.2776 22.9179 16.2776 22.8154V18.6712C16.2776 18.5686 16.1957 18.4865 16.0934 18.4865H14.9427V16.5991C14.9427 16.3775 14.7625 16.197 14.5414 16.197H12.9239V12.9637C13.9067 12.6723 14.8035 11.9132 15.5487 10.8218H17.547C18.4889 10.8218 19.2956 10.1407 19.4594 9.21336L19.9712 6.2755C20.176 5.08558 19.2628 3.99824 18.0548 3.99824ZM6.45403 9.55803C6.12644 9.55803 5.84389 9.32415 5.78656 9L5.2747 6.06213C5.22556 5.79132 5.34841 5.59848 5.42212 5.50821C5.49583 5.41794 5.66372 5.26612 5.93807 5.26612H6.49088C6.7161 6.87866 7.14606 8.34349 7.72344 9.55803H6.45403ZM18.7223 6.05803L18.2104 8.9959C18.1531 9.32005 17.8746 9.55393 17.547 9.55393H16.2735C16.855 8.33939 17.285 6.87456 17.5102 5.26202H18.063C18.3374 5.26202 18.5052 5.41383 18.579 5.5041C18.6486 5.59848 18.7673 5.78722 18.7223 6.05803Z" fill="#F8F8F8"/>
</svg>
