<svg width="24" height="24" viewBox="0 0 24 24" fill="none" xmlns="http://www.w3.org/2000/svg">
<path d="M18.3001 3L13.8001 7.05V16.95L18.3001 12.9V3ZM7.0501 5.7C5.2951 5.7 3.4051 6.06 2.1001 7.05V20.244C2.1001 20.469 2.3251 20.694 2.5501 20.694C2.6401 20.694 2.6851 20.631 2.7751 20.631C3.9901 20.046 5.7451 19.65 7.0501 19.65C8.8051 19.65 10.6951 20.01 12.0001 21C13.2151 20.235 15.4201 19.65 16.9501 19.65C18.4351 19.65 19.9651 19.929 21.2251 20.604C21.3151 20.649 21.3601 20.631 21.4501 20.631C21.6751 20.631 21.9001 20.406 21.9001 20.181V7.05C21.3601 6.645 20.7751 6.375 20.1001 6.15V18.3C19.1101 17.985 18.0301 17.85 16.9501 17.85C15.4201 17.85 13.2151 18.435 12.0001 19.2V7.05C10.6951 6.06 8.8051 5.7 7.0501 5.7Z" fill="white"/>
</svg>
