<svg width="24" height="24" viewBox="0 0 24 24" fill="none" xmlns="http://www.w3.org/2000/svg">
<path d="M5 7.19999H6.55556H19" stroke="#F8F8F8" stroke-width="1.6" stroke-linecap="round" stroke-linejoin="round"/>
<path d="M18.2446 7.2C18.2446 6.75817 17.8864 6.4 17.4446 6.4C17.0027 6.4 16.6446 6.75817 16.6446 7.2H18.2446ZM7.35566 7.2C7.35566 6.75817 6.99749 6.4 6.55566 6.4C6.11384 6.4 5.75566 6.75817 5.75566 7.2H7.35566ZM8.089 7.2C8.089 7.64183 8.44717 8 8.889 8C9.33083 8 9.689 7.64183 9.689 7.2H8.089ZM14.3112 7.2C14.3112 7.64183 14.6694 8 15.1112 8C15.553 8 15.9112 7.64183 15.9112 7.2H14.3112ZM16.6446 7.2V18.4H18.2446V7.2H16.6446ZM16.6446 18.4C16.6446 18.8632 16.2852 19.2 15.889 19.2V20.8C17.211 20.8 18.2446 19.7041 18.2446 18.4H16.6446ZM15.889 19.2H8.11122V20.8H15.889V19.2ZM8.11122 19.2C7.71503 19.2 7.35566 18.8632 7.35566 18.4H5.75566C5.75566 19.7041 6.78919 20.8 8.11122 20.8V19.2ZM7.35566 18.4V7.2H5.75566V18.4H7.35566ZM9.689 7.2V5.6H8.089V7.2H9.689ZM9.689 5.6C9.689 5.13678 10.0484 4.8 10.4446 4.8V3.2C9.12252 3.2 8.089 4.29591 8.089 5.6H9.689ZM10.4446 4.8H13.5557V3.2H10.4446V4.8ZM13.5557 4.8C13.9519 4.8 14.3112 5.13678 14.3112 5.6H15.9112C15.9112 4.29591 14.8777 3.2 13.5557 3.2V4.8ZM14.3112 5.6V7.2H15.9112V5.6H14.3112Z" fill="#F8F8F8"/>
<path d="M10.4446 11.2V16" stroke="#F8F8F8" stroke-width="1.6" stroke-linecap="round" stroke-linejoin="round"/>
<path d="M13.5556 11.2V16" stroke="#F8F8F8" stroke-width="1.6" stroke-linecap="round" stroke-linejoin="round"/>
</svg>
