<svg width="24" height="24" viewBox="0 0 24 24" fill="none" xmlns="http://www.w3.org/2000/svg">
<path fill-rule="evenodd" clip-rule="evenodd" d="M15.9939 13.1894C16.0786 13.2792 16.1971 13.3312 16.3218 13.3312C16.4466 13.3312 16.5651 13.2792 16.6489 13.1885L21.9687 7.48093C23.3437 6.00471 23.3437 3.60365 21.9687 2.12654C21.2915 1.39988 20.3879 1 19.4246 1C18.4614 1 17.5587 1.39988 16.8806 2.12654L16.3218 2.72637L15.7631 2.12654C15.0859 1.39988 14.1823 1 13.219 1C12.2557 1 11.3522 1.39988 10.674 2.12742C9.29908 3.60453 9.29908 6.00559 10.674 7.48181L15.9939 13.1894ZM1.45836 21.0382H4.20855C4.41848 21.0382 4.60183 20.8949 4.65225 20.6896L4.78067 20.1787C7.12095 21.3114 10.9542 23 12.9887 23C15.7665 23 22.3138 19.3959 22.7459 19.158L22.7591 19.1508C22.9548 19.0407 23.0467 18.8007 22.9766 18.5816C22.9529 18.5105 22.3933 16.8344 20.2692 16.8344C19.2941 16.8344 18.1677 17.2043 17.0781 17.5621L17.0781 17.5621L17.0612 17.5676C16.9459 17.6056 16.8302 17.6438 16.7144 17.6815V17.5741C16.7144 16.6402 16.0027 15.8401 14.9867 15.6293L6.38771 13.7861L6.48571 13.3963C6.53429 13.2048 6.45637 13.0032 6.29228 12.895C6.22352 12.8497 4.57616 11.7898 1.45836 11.7898C1.20535 11.7898 1 11.997 1 12.2522V20.5758C1 20.8311 1.20535 21.0382 1.45836 21.0382ZM6.16222 14.683L5.04968 19.1086C6.96665 20.0396 11.0373 21.8966 12.9887 21.8966C15.2028 21.8966 20.3204 19.2953 21.8211 18.49C21.5845 18.1675 21.1947 17.8573 20.2692 17.8573C19.5114 17.8573 18.5707 18.1704 17.6375 18.481L17.637 18.4812C17.5359 18.5148 17.4349 18.5484 17.3342 18.5816L17.3172 18.5872C16.2277 18.945 15.1013 19.3149 14.1262 19.3149C12.2479 19.3149 9.75246 18.3777 9.64781 18.3379C9.41119 18.2487 9.28924 17.8674 9.3757 17.6207C9.46124 17.3741 9.72152 17.248 9.95905 17.3371C9.98271 17.3466 12.4089 18.2572 14.1262 18.2572C14.5994 18.2572 15.1439 18.1462 15.7134 17.9884C15.7132 17.984 15.713 17.9795 15.713 17.975V17.5741C15.713 17.0146 15.3859 16.6549 14.7781 16.5299L6.16222 14.683Z" fill="#F8F8F8"/>
</svg>
