<svg width="24" height="24" viewBox="0 0 24 24" fill="none" xmlns="http://www.w3.org/2000/svg">
<path fill-rule="evenodd" clip-rule="evenodd" d="M18.32 4.21C16.84 3 15.01 2.2 13 2V4.02C14.46 4.2 15.79 4.78 16.9 5.64L18.32 4.21ZM19.93 10.95H21.95C21.75 8.94 20.95 7.11 19.74 5.63L18.31 7.05C19.17 8.16 19.75 9.49 19.93 10.95ZM18.31 16.85L19.74 18.28C20.95 16.8 21.75 14.96 21.95 12.96H19.93C19.75 14.41 19.17 15.74 18.31 16.85ZM13 19.88V21.9C15.01 21.7 16.84 20.9 18.32 19.69L16.89 18.26C15.79 19.12 14.46 19.7 13 19.88ZM15.59 10.54L13 13.12V6.95H11V13.12L8.41 10.53L7 11.95L12 16.95L17 11.95L15.59 10.54ZM11 19.88V21.9C5.95 21.4 2 17.14 2 11.95C2 6.76 5.95 2.5 11 2V4.02C7.05 4.51 4 7.87 4 11.95C4 16.03 7.05 19.39 11 19.88Z" fill="#F8F8F8"/>
</svg>
