<svg width="24" height="24" viewBox="0 0 24 24" fill="none" xmlns="http://www.w3.org/2000/svg">
<path d="M17.5001 6.50001H15.6667C15.6667 4.47418 14.0259 2.83334 12.0001 2.83334C9.97425 2.83334 8.33341 4.47418 8.33341 6.50001H6.50008C5.49175 6.50001 4.66675 7.32501 4.66675 8.33334V19.3333C4.66675 20.3417 5.49175 21.1667 6.50008 21.1667H17.5001C18.5084 21.1667 19.3334 20.3417 19.3334 19.3333V8.33334C19.3334 7.32501 18.5084 6.50001 17.5001 6.50001ZM10.1667 10.1667C10.1667 10.6708 9.75425 11.0833 9.25008 11.0833C8.74591 11.0833 8.33341 10.6708 8.33341 10.1667V8.33334H10.1667V10.1667ZM12.0001 4.66668C13.0084 4.66668 13.8334 5.49168 13.8334 6.50001H10.1667C10.1667 5.49168 10.9917 4.66668 12.0001 4.66668ZM15.6667 10.1667C15.6667 10.6708 15.2542 11.0833 14.7501 11.0833C14.2459 11.0833 13.8334 10.6708 13.8334 10.1667V8.33334H15.6667V10.1667Z" fill="#F8F8F8"/>
</svg>
