<svg width="24" height="24" viewBox="0 0 24 24" fill="none" xmlns="http://www.w3.org/2000/svg">
<path fill-rule="evenodd" clip-rule="evenodd" d="M10.2767 12C10.2767 12.4731 10.1495 12.9155 9.92855 13.2927C9.7076 12.9155 9.58041 12.4731 9.58041 12C9.58041 11.5269 9.7076 11.0845 9.92855 10.7073C10.1495 11.0845 10.2767 11.5269 10.2767 12ZM14.0715 10.7073C13.6475 9.98366 12.8784 9.5 12 9.5C11.1216 9.5 10.3525 9.98367 9.92855 10.7073C9.50464 9.98367 8.73553 9.5 7.8571 9.5C6.52079 9.5 5.4375 10.6193 5.4375 12C5.4375 13.3807 6.52079 14.5 7.8571 14.5C8.73553 14.5 9.50464 14.0163 9.92855 13.2927C10.3525 14.0163 11.1216 14.5 12 14.5C12.8784 14.5 13.6475 14.0163 14.0715 13.2927C14.4954 14.0163 15.2645 14.5 16.1429 14.5C17.4792 14.5 18.5625 13.3807 18.5625 12C18.5625 10.6193 17.4792 9.5 16.1429 9.5C15.2645 9.5 14.4954 9.98366 14.0715 10.7073ZM14.0715 10.7073C14.2924 11.0845 14.4196 11.5269 14.4196 12C14.4196 12.4731 14.2924 12.9155 14.0715 13.2927C13.8505 12.9155 13.7233 12.4731 13.7233 12C13.7233 11.5269 13.8505 11.0845 14.0715 10.7073Z" fill="white"/>
</svg>
