<svg width="24" height="24" viewBox="0 0 24 24" fill="none" xmlns="http://www.w3.org/2000/svg">
<path d="M5.05357 7.81697C6.33706 7.81697 7.14063 6.96875 7.12947 5.90848C7.11831 4.82589 6.33706 4 5.0759 4C3.82589 4 3 4.82589 3 5.90848C3 6.96875 3.79241 7.81697 5.03125 7.81697H5.05357ZM12.5982 20.3839V14.2121C12.5982 13.8772 12.6317 13.5536 12.721 13.308C12.9889 12.6496 13.5915 11.9688 14.6072 11.9688C15.9353 11.9688 16.471 12.9844 16.471 14.4688V20.3839H20.1429V14.0447C20.1429 10.6518 18.3348 9.06697 15.913 9.06697C14.0091 9.06697 13.1303 10.0817 12.638 10.8342L12.598 10.8951L12.5982 9.32367H8.92635L8.92696 9.34188C8.92704 9.3445 8.92713 9.34743 8.92722 9.3507L8.92786 9.37457C8.93139 9.51603 8.9402 10.0027 8.94418 11.4339L8.94491 11.7329C8.94502 11.7849 8.94512 11.838 8.94522 11.8922L8.94591 12.4108C8.94596 12.4719 8.94601 12.5342 8.94605 12.5977L8.94611 13.4188C8.94608 13.4923 8.94604 13.5671 8.94599 13.6432L8.94527 14.3642C8.94324 15.8797 8.93766 17.8431 8.92635 20.3839H12.5982ZM6.89509 20.3839V9.32367H3.21205V20.3839H6.89509Z" fill="#F8F8F8"/>
</svg>
