<svg width="24" height="24" viewBox="0 0 24 24" fill="none" xmlns="http://www.w3.org/2000/svg">
<path fill-rule="evenodd" clip-rule="evenodd" d="M17.8774 22C18.226 22 18.3702 21.6975 18.3702 21.3699C18.3702 21.2817 18.3702 21.206 18.3582 21.1178L17.3245 14.8166L21.6875 10.3554C21.8438 10.1916 22 9.97731 22 9.75047C22 9.3724 21.6154 9.22117 21.3269 9.17076L15.2933 8.25079L12.5889 2.5167C12.4808 2.27725 12.2764 2 12 2C11.7236 2 11.5192 2.27725 11.4111 2.5167L8.70673 8.25079L2.67308 9.17076C2.3726 9.22117 2 9.3724 2 9.75047C2 9.97731 2.15625 10.1916 2.30048 10.3554L6.67548 14.8166L5.64183 21.1178C5.62981 21.206 5.61779 21.2817 5.61779 21.3699C5.61779 21.6975 5.77404 22 6.1226 22C6.29087 22 6.44711 21.937 6.60336 21.8488L12 18.8746L17.3966 21.8488C17.5409 21.937 17.7091 22 17.8774 22Z" fill="#F8F8F8"/>
</svg>
