<svg width="24" height="24" viewBox="0 0 24 24" fill="none" xmlns="http://www.w3.org/2000/svg">
<path d="M8.53572 19.2857C15.1652 19.2857 18.7924 13.7947 18.7924 9.02902C18.7924 8.87277 18.7924 8.71652 18.7813 8.56027C19.4844 8.04688 20.0982 7.41072 20.5893 6.69643C19.942 6.97545 19.2389 7.17634 18.5134 7.25447C19.2612 6.80804 19.8304 6.10491 20.0982 5.26786C19.4063 5.6808 18.625 5.98214 17.8103 6.13839C17.1518 5.43527 16.2143 5 15.1764 5C13.1786 5 11.5714 6.61831 11.5714 8.60491C11.5714 8.88393 11.6049 9.16295 11.6607 9.43081C8.66965 9.27456 6.00224 7.84599 4.22768 5.65848C3.91518 6.1942 3.73661 6.80804 3.73661 7.47768C3.73661 8.72768 4.37277 9.8326 5.34375 10.4799C4.75223 10.4576 4.1942 10.2902 3.71429 10.0223V10.067C3.71429 11.8192 4.95313 13.2701 6.60491 13.6049C6.30358 13.683 5.97991 13.7277 5.65625 13.7277C5.42188 13.7277 5.19866 13.7054 4.97545 13.6719C5.43304 15.1005 6.76117 16.1384 8.34599 16.1719C7.10715 17.1429 5.55581 17.7121 3.87054 17.7121C3.5692 17.7121 3.29018 17.7009 3 17.6674C4.59598 18.6942 6.49331 19.2857 8.53572 19.2857Z" fill="#F8F8F8"/>
</svg>
