<svg width="24" height="24" viewBox="0 0 24 24" fill="none" xmlns="http://www.w3.org/2000/svg">
<g clip-path="url(#clip0_5_294)">
<path d="M22 4H2C0.89543 4 0 4.89543 0 6V17.8298C0 18.9344 0.89543 19.8298 2 19.8298H22C23.1046 19.8298 24 18.9344 24 17.8298V6C24 4.89543 23.1046 4 22 4Z" fill="white" stroke="black" stroke-opacity="0.2" stroke-width="0.5"/>
<path d="M2.59164 9.78496C2.05737 9.49192 1.44761 9.25625 0.765869 9.09269L0.794465 8.96533H3.58968C3.96855 8.97861 4.27599 9.0926 4.37603 9.4952L4.9835 12.3914L5.1696 13.2637L6.87103 8.96533H8.70812L5.97732 15.2622H4.14013L2.59164 9.78496ZM10.0595 15.2688H8.32212L9.40878 8.96533H11.146L10.0595 15.2688ZM16.3575 9.11943L16.1212 10.4806L15.9641 10.4137C15.6497 10.2862 15.2347 10.1588 14.6699 10.1723C13.984 10.1723 13.6764 10.4471 13.6692 10.7154C13.6692 11.0105 14.0414 11.2049 14.649 11.4934C15.65 11.9427 16.1143 12.4925 16.1073 13.2101C16.0933 14.5178 14.9065 15.3628 13.0835 15.3628C12.3041 15.356 11.5534 15.2015 11.1459 15.0273L11.389 13.6123L11.6178 13.713C12.1826 13.948 12.5543 14.0483 13.2479 14.0483C13.7481 14.0483 14.2844 13.8537 14.2912 13.4314C14.2912 13.1564 14.0627 12.9551 13.3906 12.6466C12.733 12.3447 11.8537 11.8419 11.868 10.9365C11.8754 9.70937 13.0835 8.85107 14.7992 8.85107C15.4713 8.85107 16.0148 8.99189 16.3575 9.11943ZM18.6666 13.0357H20.1106C20.0392 12.7206 19.7102 11.2117 19.7102 11.2117L19.5888 10.6686C19.503 10.9032 19.353 11.2855 19.3602 11.2721C19.3602 11.2721 18.8096 12.6736 18.6666 13.0357ZM20.8111 8.96533L22.2127 15.2688H20.6041C20.6041 15.2688 20.4466 14.5445 20.3968 14.3232H18.1662C18.1017 14.4908 17.8015 15.2688 17.8015 15.2688H15.9786L18.5592 9.48833C18.738 9.07924 19.0528 8.96533 19.4672 8.96533H20.8111Z" fill="#171E6C"/>
</g>
<defs>
<clipPath id="clip0_5_294">
<rect width="24" height="24" fill="white"/>
</clipPath>
</defs>
</svg>
